<svg xmlns="http://www.w3.org/2000/svg" viewBox="0 0 512 512" role="img" aria-labelledby="title">
  <title>BoxGym Icon</title>
  <rect width="512" height="512" fill="#ffffff"/>
  <path
    d="M0 176c103 73 182 130 238 170 20 15 36 22 52 23 18 1 40-5 68-18 52-24 103-51 154-83-37 11-70 17-100 16-29-1-56-10-83-29C252 203 141 127 0 176z"
    fill="#195392"
  />
  <g transform="translate(232 72)" fill="none" stroke="#ef342d" stroke-linecap="round" stroke-linejoin="round">
    <circle cx="82" cy="66" r="74" stroke-width="14"/>
    <circle cx="26" cy="96" r="34" stroke-width="14"/>
    <path d="M8 152c-14 13-23 30-28 50" stroke-width="14"/>
    <path d="M-6 202c33 17 64 25 95 25 26 0 48-5 68-18" stroke-width="14"/>
    <path d="M114 132c0 27-10 49-28 64-17 14-38 22-60 22-25 0-46-10-63-28" stroke-width="14"/>
    <path d="M0 230c-18 22-27 48-31 77 29 21 66 31 111 31 25 0 49-4 73-12 2-13 2-27-1-41" stroke-width="14"/>
    <path d="M148 149c10-8 18-19 23-32" stroke-width="14"/>
  </g>
</svg>
